<svg xmlns:xlink="http://www.w3.org/1999/xlink" xmlns="http://www.w3.org/2000/svg" width="85" height="73" viewBox="0 0 85 73" fill="none">
<path fill-rule="evenodd" clip-rule="evenodd" d="M41.8402 1L51.402 10.0529L68.0005 7.19225L60.6857 40.1332L41.8369 37.3005L41.7961 37.3071L24.2458 40.1117L16.0757 7.47551L15.9727 7.06212L32.3259 9.92938L41.8402 1ZM31.053 29.7199L41.7938 28.0038L53.8053 29.8088L56.2255 18.5442L48.4626 19.883L41.8265 13.6002L41.8118 13.587L35.228 19.7645L28.255 18.5425L31.053 29.7199Z" fill="white"/>
<path d="M20.6797 56.7196H18.0236C17.5493 56.7196 17.3596 57.0982 17.2647 57.4768L15.6521 68.4554L13.4703 59.7482C13.1857 58.5179 12.6165 58.3286 11.6679 58.3286H9.77069C8.82208 58.3286 8.34778 58.5179 7.96833 59.7482L5.78653 68.4554L4.17389 57.3821C4.17389 57.0036 3.8893 56.625 3.415 56.625H0.85375C0.379444 56.625 0 57.0036 0 57.4768V57.5714L2.46639 70.0643C2.84583 71.8625 3.32014 72.6196 5.21736 72.6196H5.97625C7.49403 72.6196 8.44264 71.8625 8.82208 70.3482L10.8142 62.6821L12.8062 70.3482C13.1857 71.9571 14.1343 72.6196 15.6521 72.6196H16.411C18.3082 72.6196 18.7825 71.8625 19.0671 70.1589L21.5335 57.6661V57.5714C21.5335 57.0036 21.154 56.7196 20.6797 56.7196Z" fill="white"/>
<path d="M25.612 54.9215C26.2761 54.9215 26.8452 54.7322 27.3195 54.259C27.7938 53.8804 27.9836 53.3126 27.9836 52.5554C27.9836 51.7983 27.699 51.2304 27.2247 50.7572C26.7504 50.284 26.1812 50.0947 25.5172 50.0947C24.8531 50.0947 24.284 50.284 23.8097 50.7572C23.3354 51.2304 23.0508 51.7983 23.0508 52.5554C23.0508 53.3126 23.3354 53.8804 23.8097 54.3537C24.3788 54.7322 24.948 54.9215 25.612 54.9215Z" fill="white"/>
<path d="M26.9403 56.8143H24.379C23.9996 56.8143 23.715 57.1929 23.6201 57.5715V71.8625C23.6201 72.2411 23.9047 72.6197 24.379 72.6197H26.9403C27.3197 72.6197 27.6043 72.2411 27.6991 71.8625V57.5715C27.6991 57.0983 27.4146 56.8143 26.9403 56.8143Z" fill="white"/>
<path d="M44.3004 63.7232C44.3004 62.6821 44.2055 61.7357 44.0158 60.7892C43.826 59.8428 43.4466 59.0857 42.8774 58.4232C42.3083 57.7607 41.6442 57.2875 40.7905 56.9089C39.8419 56.625 38.7984 56.4357 37.4704 56.4357C36.1423 56.4357 34.9091 56.5303 33.7708 56.7196C32.917 56.8142 32.253 57.0035 31.589 57.0982H31.4941C31.0198 57.2875 30.8301 57.5714 30.8301 57.95V71.6732C30.8301 72.0517 31.1147 72.4303 31.589 72.4303H34.1502C34.5297 72.4303 34.8142 72.0517 34.9091 71.6732V60.5053C34.9091 60.316 35.004 60.1267 35.1937 60.0321C35.1937 60.0321 35.5731 60.0321 35.7629 59.9375C36.2372 59.8428 36.7115 59.8428 37.0909 59.8428C37.6601 59.8428 38.1344 59.9375 38.5138 60.0321C38.8933 60.2214 39.1779 60.4107 39.3676 60.6946C39.5573 60.9785 39.747 61.4517 39.8419 62.0196C39.9367 62.5875 40.0316 63.25 40.0316 64.1017V71.6732C40.0316 72.0517 40.3162 72.4303 40.7905 72.4303H43.3517C43.7312 72.4303 44.0158 72.0517 44.1106 71.6732L44.3004 63.7232Z" fill="white"/>
<path d="M60.4262 63.7232C60.4262 62.6821 60.3313 61.7357 60.1416 60.7893C59.9519 59.8428 59.5724 59.0857 59.0033 58.4232C58.4341 57.7607 57.7701 57.2875 56.9163 56.9089C56.0626 56.5304 54.9242 56.3411 53.6911 56.3411C52.363 56.3411 51.1298 56.4357 49.9915 56.625C49.1377 56.7196 48.4737 56.9089 47.8097 57.0036H47.7148C47.2405 57.1928 47.0508 57.4768 47.0508 57.8554V71.5786C47.0508 71.9571 47.3354 72.3357 47.8097 72.3357H50.3709C50.7504 72.3357 51.0349 71.9571 51.1298 71.5786V60.4107C51.1298 60.2214 51.2247 60.0321 51.4144 59.9375C51.4144 59.9375 51.7938 59.9375 51.9836 59.8428C52.4579 59.7482 52.9322 59.7482 53.3116 59.7482C53.8808 59.7482 54.3551 59.8428 54.7345 59.9375C55.114 60.1268 55.3985 60.3161 55.5883 60.6C55.778 60.8839 55.9677 61.3571 56.0626 61.925C56.1574 62.4928 56.2523 63.1553 56.2523 64.0071V71.5786C56.2523 71.9571 56.5369 72.3357 57.0112 72.3357H59.5724C59.9519 72.3357 60.2365 71.9571 60.3313 71.5786L60.4262 63.7232Z" fill="white"/>
<path d="M65.7388 54.9214C66.4029 54.9214 66.972 54.7321 67.4463 54.2589C67.9206 53.7857 68.2052 53.2179 68.2052 52.4607C68.2052 51.7036 67.9206 51.1357 67.4463 50.6625C66.972 50.1893 66.4029 50 65.7388 50C65.0748 50 64.5057 50.1893 64.0313 50.6625C63.557 51.1357 63.2725 51.7036 63.2725 52.4607C63.2725 53.2179 63.557 53.7857 64.0313 54.2589C64.5057 54.7321 65.0748 54.9214 65.7388 54.9214Z" fill="white"/>
<path d="M67.1619 56.8142H64.6007C64.2212 56.8142 63.9367 57.1928 63.8418 57.5714V71.8624C63.8418 72.241 64.1264 72.6196 64.6007 72.6196H67.1619C67.5414 72.6196 67.826 72.241 67.9208 71.8624V57.5714C67.826 57.0981 67.5414 56.8142 67.1619 56.8142Z" fill="white"/>
<path d="M84.4262 63.7232C84.4262 62.6821 84.3313 61.7357 84.1416 60.7893C83.9519 59.8428 83.5725 59.0857 83.0033 58.4232C82.4341 57.7607 81.7701 57.2875 80.9163 56.9089C80.0626 56.5304 78.9243 56.3411 77.6911 56.3411C76.363 56.3411 75.1298 56.4357 73.9915 56.625C73.1377 56.7196 72.4737 56.9089 71.8097 57.0036H71.7148C71.2405 57.1928 71.0508 57.4768 71.0508 57.8554V71.5786C71.0508 71.9571 71.3354 72.3357 71.8097 72.3357H74.3709C74.7504 72.3357 75.0349 71.9571 75.1298 71.5786V60.4107C75.1298 60.2214 75.2247 60.0321 75.4144 59.9375C75.4144 59.9375 75.7938 59.9375 75.9836 59.8428C76.4579 59.7482 76.9322 59.7482 77.3116 59.7482C77.8808 59.7482 78.3551 59.8428 78.7345 59.9375C79.114 60.1268 79.3986 60.3161 79.5883 60.6C79.778 60.8839 79.9677 61.3571 80.0626 61.925C80.1575 62.4928 80.2523 63.1553 80.2523 64.0071V71.5786C80.2523 71.9571 80.5369 72.3357 81.0112 72.3357H83.5725C83.9519 72.3357 84.2365 71.9571 84.3313 71.5786L84.4262 63.7232Z" fill="white"/>
</svg>